<svg width="38" height="38" viewBox="0 0 38 38" fill="none" xmlns="http://www.w3.org/2000/svg">
<path d="M35.71 25.8869V34.6515C35.71 35.3962 35.1063 35.9999 34.3616 35.9999H3.3484C2.6037 35.9999 2 35.3962 2 34.6515V3.63829C2 2.89359 2.6037 2.28989 3.3484 2.28989H12.113" stroke="#B47AEA" stroke-width="3" stroke-linecap="round" stroke-linejoin="round"/>
<path fill-rule="evenodd" clip-rule="evenodd" d="M32.3358 14.0822L17.2584 29.2576H9.43229C9.06228 29.2686 8.75334 28.9777 8.74203 28.6077C8.74203 28.5943 8.74203 28.5809 8.74203 28.5675V20.8304L23.9124 5.66005L32.3358 14.0822ZM35.0168 11.4095L32.3389 14.0967L23.9145 5.65801L26.5853 2.9872C27.9019 1.671 30.0361 1.67092 31.3528 2.98704L35.0125 6.64621C36.3274 7.96101 36.3294 10.0923 35.0168 11.4095Z" stroke="#B47AEA" stroke-width="3" stroke-linecap="round" stroke-linejoin="round"/>
</svg>
